<?xml version="1.0" encoding="UTF-8"?><svg id="Layer_1" xmlns="http://www.w3.org/2000/svg" viewBox="0 0 761.16 144.23"><defs><style>.cls-1{fill:#fff;}.cls-2{fill:#2672fb;}</style></defs><path class="cls-2" d="m185.26,0c-8.7,0-16.45,2.93-22.11,7.76v9.64c4.82-5.24,12.68-9.85,22.22-9.85,15.51,0,27.46,12.16,27.46,28.51v22.53c5.14-5.45,8.39-13.31,8.39-22.53,0-20.75-16.04-36.05-35.95-36.05Z"/><path class="cls-2" d="m157.91,35.43V12.89c-5.13,5.45-8.49,13.31-8.49,22.53,0,20.75,16.04,36.05,35.95,36.05,8.7,0,16.45-2.93,22.22-7.76v-9.64c-4.93,5.24-12.89,9.85-22.32,9.85-15.51,0-27.36-12.26-27.36-28.51Z"/><path class="cls-2" d="m269.08,1.15h-24.32v69.17h8.18V8.28h16.04c9.12,0,13.84,5.66,13.84,13s-4.72,12.89-13.84,12.89h-10.9v7.13h11c13.63,0,22.11-8.39,22.11-20.12s-8.49-20.02-22.11-20.02Z"/><path class="cls-2" d="m349.79,16.25l5.98-4.51c-4.19-6.71-12.16-11.74-21.38-11.74-2.73,0-5.24.42-7.55,1.15v7.76c2.31-.94,5.03-1.36,7.34-1.36,6.29,0,11.95,3.14,15.62,8.7Z"/><path class="cls-2" d="m340.46,32.91l-7.65-3.67c-6.29-3.04-11.11-5.34-11.11-12.68V3.56c-5.03,3.04-8.49,8.07-8.49,14.57,0,9.75,7.55,14.57,15.62,18.45l7.76,3.67c6.81,3.25,11.53,5.76,11.53,13.21v14.15c5.24-3.35,8.49-8.59,8.49-15.41,0-9.33-5.97-14.46-16.14-19.28Z"/><path class="cls-2" d="m314.89,52.09l-6.08,4.51c5.34,9.12,14.57,14.88,25.26,14.88,3.25,0,6.18-.53,8.91-1.47v-7.65c-2.73.94-5.87,1.57-8.8,1.57-8.91,0-15.09-5.45-19.28-11.84Z"/><polygon class="cls-2" points="372.55 1.15 398.85 71.48 401.79 71.48 404.72 64.35 381.56 1.15 372.55 1.15"/><polygon class="cls-2" points="449.37 46.64 453.77 57.44 474.73 1.15 465.83 1.15 449.37 46.64"/><polygon class="cls-2" points="422.23 0 403.67 46.43 407.55 57.12 423.69 16.66 445.6 71.48 448.64 71.48 451.05 64.77 425.16 0 422.23 0"/><polygon class="cls-2" points="499.69 49.52 510.7 23.95 506.4 13.78 482.09 70.9 490.68 70.9 496.55 56.86 524.85 56.86 521.7 49.52 499.69 49.52"/><polygon class="cls-2" points="512.06 .58 509.13 7.18 536.38 70.9 545.08 70.9 515.1 .58 512.06 .58"/><rect class="cls-2" x="549.37" y="1.15" width="56.91" height="7.34"/><rect class="cls-2" x="573.69" y="13.62" width="8.18" height="56.7"/><path class="cls-2" d="m606.38,60.97c-2.96,0-5.41,2.47-5.41,5.52s2.45,5.5,5.41,5.5,5.37-2.47,5.37-5.5-2.4-5.52-5.37-5.52Z"/><path class="cls-1" d="m9.31,125.02H3.17v11.21H0v-28.85h9.31c6.68,0,9.31,3.71,9.31,8.82s-2.64,8.82-9.31,8.82Zm0-14.51H3.17v11.38h6.14c4.45,0,6.06-2.56,6.06-5.69s-1.61-5.69-6.06-5.69Z"/><path class="cls-1" d="m26.01,117.19c1.07-1.73,3.3-2.6,5.23-2.6h1.36v2.97h-1.36c-2.76,0-5.23,1.77-5.23,5.32v13.35h-3.09v-21.27h3.09v2.23Z"/><path class="cls-1" d="m52.39,128.32c0,6.27-4.37,8.33-8.33,8.33s-8.33-2.06-8.33-8.33v-5.61c0-6.26,4.37-8.32,8.33-8.32s8.33,2.06,8.33,8.32v5.61Zm-3.09-5.65c0-3.54-2.47-5.32-5.23-5.32s-5.23,1.77-5.23,5.32v5.69c0,3.54,2.47,5.32,5.23,5.32s5.23-1.77,5.23-5.32v-5.69Z"/><path class="cls-1" d="m62.08,131.41c0,1.36.49,1.86,1.98,1.86h3.26v2.97h-3.26c-3.96,0-5.07-1.44-5.07-5.07v-13.23h-3.01v-2.97h3.01v-4.82h3.09v4.82h5.23v2.97h-5.23v13.48Z"/><path class="cls-1" d="m84.91,129.56h3.17c-.54,5.32-4.58,7.09-8.28,7.09-3.96,0-8.33-2.06-8.33-8.33v-5.61c0-6.26,4.37-8.32,8.33-8.32s8.33,2.06,8.33,8.32v3.59h-13.56v2.06c0,3.54,2.47,5.32,5.23,5.32,2.43,0,4.62-1.36,5.11-4.12Zm.12-6.88c0-3.54-2.47-5.32-5.23-5.32s-5.23,1.77-5.23,5.32v.78h10.47v-.78Z"/><path class="cls-1" d="m109.56,121.69h-3.13c-.41-2.89-2.68-4.33-5.15-4.33-2.76,0-5.23,1.77-5.23,5.32v5.69c0,3.54,2.47,5.32,5.23,5.32,2.47,0,4.74-1.44,5.15-4.33h3.13c-.45,5.48-4.53,7.3-8.28,7.3-3.96,0-8.33-2.02-8.33-8.33v-5.61c0-6.26,4.37-8.32,8.33-8.32,3.75,0,7.83,1.81,8.28,7.3Z"/><path class="cls-1" d="m118.84,131.41c0,1.36.49,1.86,1.98,1.86h3.26v2.97h-3.26c-3.96,0-5.07-1.44-5.07-5.07v-13.23h-3.01v-2.97h3.01v-4.82h3.09v4.82h5.23v2.97h-5.23v13.48Z"/><path class="cls-1" d="m131.9,111.38h-3.09v-4h3.09v4Zm0,24.85h-3.09v-21.27h3.09v21.27Z"/><path class="cls-1" d="m154.74,122.72v13.52h-3.09v-13.56c0-3.54-2.47-5.32-5.23-5.32s-5.23,1.77-5.23,5.32v13.56h-3.09v-21.27h3.09v2.02c1.07-1.73,3.3-2.6,5.23-2.6,3.96,0,8.33,2.06,8.33,8.32Z"/><path class="cls-1" d="m173.57,135.95v-2.72c-1.07,1.73-3.3,2.6-5.23,2.6-3.96,0-8.32-2.06-8.32-8.32v-4.78c0-6.26,4.37-8.32,8.32-8.32,1.94,0,4.16.87,5.23,2.6v-2.02h3.09v20.94c0,6.31-4.37,8.33-8.33,8.33-3.75,0-7.83-1.81-8.28-7.3h3.13c.41,2.88,2.68,4.33,5.15,4.33,2.76,0,5.23-1.77,5.23-5.32Zm-10.47-8.41c0,3.54,2.47,5.32,5.23,5.32s5.23-1.77,5.23-5.32v-4.86c0-3.54-2.47-5.32-5.23-5.32s-5.23,1.77-5.23,5.32v4.86Z"/><path class="cls-1" d="m196.2,131.41c0,1.36.49,1.86,1.98,1.86h3.26v2.97h-3.26c-3.96,0-5.07-1.44-5.07-5.07v-13.23h-3.01v-2.97h3.01v-4.82h3.09v4.82h5.23v2.97h-5.23v13.48Z"/><path class="cls-1" d="m222.83,122.72v13.52h-3.09v-13.56c0-3.54-2.47-5.32-5.23-5.32s-5.23,1.77-5.23,5.32v13.56h-3.09v-28.85h3.09v9.6c1.07-1.73,3.3-2.6,5.23-2.6,3.96,0,8.33,2.06,8.33,8.32Z"/><path class="cls-1" d="m241.59,129.56h3.17c-.54,5.32-4.58,7.09-8.28,7.09-3.96,0-8.33-2.06-8.33-8.33v-5.61c0-6.26,4.37-8.32,8.33-8.32s8.33,2.06,8.33,8.32v3.59h-13.56v2.06c0,3.54,2.47,5.32,5.23,5.32,2.43,0,4.62-1.36,5.11-4.12Zm.12-6.88c0-3.54-2.47-5.32-5.23-5.32s-5.23,1.77-5.23,5.32v.78h10.47v-.78Z"/><path class="cls-1" d="m271.35,116.49l-5.48,19.74h-3.05l-5.32-28.85h3.13l4.08,22.5,5.11-18.38h3.05l5.11,18.38,4.08-22.5h3.13l-5.32,28.85h-3.05l-5.48-19.74Z"/><path class="cls-1" d="m304.32,128.32c0,6.27-4.37,8.33-8.33,8.33s-8.33-2.06-8.33-8.33v-5.61c0-6.26,4.37-8.32,8.33-8.32s8.33,2.06,8.33,8.32v5.61Zm-3.09-5.65c0-3.54-2.47-5.32-5.23-5.32s-5.23,1.77-5.23,5.32v5.69c0,3.54,2.47,5.32,5.23,5.32s5.23-1.77,5.23-5.32v-5.69Z"/><path class="cls-1" d="m313.02,117.19c1.07-1.73,3.3-2.6,5.23-2.6h1.36v2.97h-1.36c-2.76,0-5.23,1.77-5.23,5.32v13.35h-3.09v-21.27h3.09v2.23Z"/><path class="cls-1" d="m326.42,131.41c0,1.36.49,1.86,1.98,1.86h.66v2.97h-.66c-3.96,0-5.07-1.44-5.07-5.07v-23.78h3.09v24.03Z"/><path class="cls-1" d="m333.3,128.32v-5.61c0-6.26,4.37-8.32,8.33-8.32,1.94,0,4.16.87,5.23,2.6v-9.6h3.09v28.85h-3.09v-2.18c-1.07,1.73-3.3,2.6-5.23,2.6-3.96,0-8.33-2.06-8.33-8.33Zm3.09.04c0,3.54,2.47,5.32,5.23,5.32s5.23-1.77,5.23-5.32v-5.69c0-3.54-2.47-5.32-5.23-5.32s-5.23,1.77-5.23,5.32v5.69Z"/><path class="cls-1" d="m355.85,107.38h4.33v4.33l-1.44,3.87h-2.64l1.44-3.87h-1.69v-4.33Z"/><path class="cls-1" d="m375.18,121.19c-.37-2.47-2.02-3.83-4.66-3.83-2.31,0-4,1.15-4,3.09,0,1.77,1.2,2.56,2.93,2.97l4,.99c3.21.78,5.44,2.39,5.44,6.31,0,4.2-3.17,5.94-7.5,5.94s-8.2-2.06-8.53-7.21h3.17c.29,3.01,2.51,4.25,5.36,4.25s4.33-1.2,4.37-3.05c0-1.36-.62-2.56-2.97-3.13l-4.16-1.03c-2.31-.54-5.23-2.1-5.23-5.89s3.26-6.18,7.17-6.18c4.29,0,7.46,2.06,7.79,6.8h-3.17Z"/><path class="cls-1" d="m410.96,115.92h-3.17c-.33-3.83-2.88-5.81-6.1-5.81-3.42,0-6.14,2.27-6.14,6.64v10.14c0,4.37,2.72,6.64,6.14,6.64,3.21,0,5.77-1.98,6.1-5.81h3.17c-.33,5.56-4,8.94-9.27,8.94s-9.31-3.71-9.31-9.77v-10.14c0-6.06,3.79-9.77,9.31-9.77s8.94,3.38,9.27,8.94Z"/><path class="cls-1" d="m419.16,117.19c1.07-1.73,3.3-2.6,5.23-2.6h1.36v2.97h-1.36c-2.76,0-5.23,1.77-5.23,5.32v13.35h-3.09v-21.27h3.09v2.23Z"/><path class="cls-1" d="m432.64,111.38h-3.09v-4h3.09v4Zm0,24.85h-3.09v-21.27h3.09v21.27Z"/><path class="cls-1" d="m442.91,131.41c0,1.36.49,1.86,1.98,1.86h3.26v2.97h-3.26c-3.96,0-5.07-1.44-5.07-5.07v-13.23h-3.01v-2.97h3.01v-4.82h3.09v4.82h5.23v2.97h-5.23v13.48Z"/><path class="cls-1" d="m455.97,111.38h-3.09v-4h3.09v4Zm0,24.85h-3.09v-21.27h3.09v21.27Z"/><path class="cls-1" d="m478.19,121.69h-3.13c-.41-2.89-2.68-4.33-5.15-4.33-2.76,0-5.23,1.77-5.23,5.32v5.69c0,3.54,2.47,5.32,5.23,5.32,2.47,0,4.74-1.44,5.15-4.33h3.13c-.45,5.48-4.53,7.3-8.28,7.3-3.96,0-8.33-2.02-8.33-8.33v-5.61c0-6.26,4.37-8.32,8.33-8.32,3.75,0,7.83,1.81,8.28,7.3Z"/><path class="cls-1" d="m485.49,121.48h-3.17c.54-5.32,4.58-7.09,8.28-7.09,3.96,0,8.32,2.06,8.32,8.32v13.52h-3.09v-2.18c-1.36,1.77-3.75,2.6-6.64,2.6-3.63,0-7.05-1.94-7.05-6.31,0-2.14.91-5.03,4.62-6.1,2.43-.7,5.48-.95,9.07-1.2v-.37c0-3.54-2.47-5.32-5.23-5.32-2.43,0-4.62,1.36-5.11,4.12Zm10.35,4.33c-4.66.33-7.3.62-8.74,1.4-1.57.87-1.86,1.81-1.86,3.05,0,1.94,1.48,3.42,4.62,3.42,3.34,0,5.98-1.77,5.98-5.11v-2.76Z"/><path class="cls-1" d="m507.83,131.41c0,1.36.5,1.86,1.98,1.86h.66v2.97h-.66c-3.96,0-5.07-1.44-5.07-5.07v-23.78h3.09v24.03Z"/><path class="cls-1" d="m524.77,107.38h3.17v28.85h-3.17v-28.85Z"/><path class="cls-1" d="m550.98,122.72v13.52h-3.09v-13.56c0-3.54-2.47-5.32-5.23-5.32s-5.23,1.77-5.23,5.32v13.56h-3.09v-21.27h3.09v2.02c1.07-1.73,3.3-2.6,5.23-2.6,3.96,0,8.33,2.06,8.33,8.32Z"/><path class="cls-1" d="m563.02,110.35c-1.48,0-1.98.5-1.98,1.86v2.76h5.23v2.97h-5.23v18.3h-3.09v-18.3h-3.01v-2.97h3.01v-2.51c0-3.63,1.11-5.07,5.07-5.07h3.26v2.97h-3.26Z"/><path class="cls-1" d="m573.04,117.19c1.07-1.73,3.3-2.6,5.23-2.6h1.36v2.97h-1.36c-2.76,0-5.23,1.77-5.23,5.32v13.35h-3.09v-21.27h3.09v2.23Z"/><path class="cls-1" d="m585.53,121.48h-3.17c.54-5.32,4.58-7.09,8.28-7.09,3.96,0,8.32,2.06,8.32,8.32v13.52h-3.09v-2.18c-1.36,1.77-3.75,2.6-6.64,2.6-3.63,0-7.05-1.94-7.05-6.31,0-2.14.91-5.03,4.62-6.1,2.43-.7,5.48-.95,9.07-1.2v-.37c0-3.54-2.47-5.32-5.23-5.32-2.43,0-4.62,1.36-5.11,4.12Zm10.35,4.33c-4.66.33-7.3.62-8.74,1.4-1.57.87-1.86,1.81-1.86,3.05,0,1.94,1.48,3.42,4.62,3.42,3.34,0,5.98-1.77,5.98-5.11v-2.76Z"/><path class="cls-1" d="m615.7,121.19c-.37-2.47-2.02-3.83-4.66-3.83-2.31,0-4,1.15-4,3.09,0,1.77,1.2,2.56,2.93,2.97l4,.99c3.21.78,5.44,2.39,5.44,6.31,0,4.2-3.17,5.94-7.5,5.94s-8.2-2.06-8.53-7.21h3.17c.29,3.01,2.51,4.25,5.36,4.25s4.33-1.2,4.37-3.05c0-1.36-.62-2.56-2.97-3.13l-4.16-1.03c-2.31-.54-5.23-2.1-5.23-5.89s3.26-6.18,7.17-6.18c4.29,0,7.46,2.06,7.79,6.8h-3.17Z"/><path class="cls-1" d="m628.35,131.41c0,1.36.49,1.86,1.98,1.86h3.26v2.97h-3.26c-3.96,0-5.07-1.44-5.07-5.07v-13.23h-3.01v-2.97h3.01v-4.82h3.09v4.82h5.23v2.97h-5.23v13.48Z"/><path class="cls-1" d="m641.42,117.19c1.07-1.73,3.3-2.6,5.23-2.6h1.36v2.97h-1.36c-2.76,0-5.23,1.77-5.23,5.32v13.35h-3.09v-21.27h3.09v2.23Z"/><path class="cls-1" d="m651.52,128.45v-13.48h3.09v13.27c0,3.79,2.6,5.44,5.11,5.44s5.11-1.81,5.11-5.32v-13.39h3.09v21.27h-3.09v-2.18c-1.07,1.69-3.3,2.6-5.11,2.6-3.5,0-8.2-1.9-8.2-8.2Z"/><path class="cls-1" d="m690.14,121.69h-3.13c-.41-2.89-2.68-4.33-5.15-4.33-2.76,0-5.23,1.77-5.23,5.32v5.69c0,3.54,2.47,5.32,5.23,5.32,2.47,0,4.74-1.44,5.15-4.33h3.13c-.45,5.48-4.53,7.3-8.28,7.3-3.96,0-8.33-2.02-8.33-8.33v-5.61c0-6.26,4.37-8.32,8.33-8.32,3.75,0,7.83,1.81,8.28,7.3Z"/><path class="cls-1" d="m699.42,131.41c0,1.36.49,1.86,1.98,1.86h3.26v2.97h-3.26c-3.96,0-5.07-1.44-5.07-5.07v-13.23h-3.01v-2.97h3.01v-4.82h3.09v4.82h5.23v2.97h-5.23v13.48Z"/><path class="cls-1" d="m709.1,128.45v-13.48h3.09v13.27c0,3.79,2.6,5.44,5.11,5.44s5.11-1.81,5.11-5.32v-13.39h3.09v21.27h-3.09v-2.18c-1.07,1.69-3.3,2.6-5.11,2.6-3.5,0-8.2-1.9-8.2-8.2Z"/><path class="cls-1" d="m734.78,117.19c1.07-1.73,3.3-2.6,5.23-2.6h1.36v2.97h-1.36c-2.76,0-5.23,1.77-5.23,5.32v13.35h-3.09v-21.27h3.09v2.23Z"/><path class="cls-1" d="m757.95,129.56h3.17c-.54,5.32-4.58,7.09-8.28,7.09-3.96,0-8.33-2.06-8.33-8.33v-5.61c0-6.26,4.37-8.32,8.33-8.32s8.33,2.06,8.33,8.32v3.59h-13.56v2.06c0,3.54,2.47,5.32,5.23,5.32,2.43,0,4.62-1.36,5.11-4.12Zm.12-6.88c0-3.54-2.47-5.32-5.23-5.32s-5.23,1.77-5.23,5.32v.78h10.47v-.78Z"/></svg>