<?xml version="1.0" encoding="utf-8"?>
<!-- Generator: Adobe Illustrator 25.2.3, SVG Export Plug-In . SVG Version: 6.00 Build 0)  -->
<svg version="1.1" id="Layer_1" xmlns="http://www.w3.org/2000/svg" xmlns:xlink="http://www.w3.org/1999/xlink" x="0px" y="0px"
	 viewBox="0 0 556 266" style="enable-background:new 0 0 556 266;" xml:space="preserve">
<style type="text/css">
	.st0{fill:#FBECEC;}
</style>
<g transform="translate(0.000000,266.000000) scale(0.100000,-0.100000)">
	<path d="M1471.3,1866.4c-55-39-349-560-491-870c-79-172-78-171-48-179c13-3,31-3,40,0c8,3,59,58,114,122c110,130,290,322,301,322
		c4,0-23-62-62-137c-69-138-87-201-73-257c16-63,146-75,227-22c36,24,44,26,53,14c20-26,60-48,89-48c43,0,120,44,189,109l63,59
		l-3-43c-4-47,17-98,47-115c28-15,87-12,121,5c17,9,40,12,58,9c28-6,35,0,108,92c126,159,335,367,351,350c3-2-16-38-42-78
		c-136-209-156-315-70-368c38-24,82-26,130-6c18,8,35,11,37,6s15-12,30-15c32-8,37-3,163,145c90,107,286,312,292,307
		c2-2-17-40-42-84c-108-192-132-297-79-350c24-24,31-25,93-21c58,4,77,11,125,43c79,52,106,90,106,148c0,53-15,61-46,26
		c-45-51-136-119-160-119c-41,0-30,43,67,241c100,206,103,221,41,239c-55,15-123-23-240-134l-96-91l54,100c59,110,188,326,287,478
		c76,117,79,137,24,137c-49,0-77-22-129-102c-65-101-235-408-332-598c-48-96-101-187-117-201c-93-87-180-92-151-8
		c14,41,44,92,126,218c88,132,96,179,35,202c-52,19-142-22-237-110l-50-46l23,37c72,119,62,154-33,114c-29-12-52-44-153-213
		c-118-199-144-232-196-254c-24-10-31-10-38,2c-21,31,29,178,106,311c25,43,45,86,45,97c0,33-60,43-92,14c-17-15-19-15-38,2
		c-33,30-119,23-197-15c-94-47-203-153-248-243c-19-38-35-76-35-83c0-21-100-95-124-92c-37,5-22,59,70,248c76,157,86,183,76,204
		c-7,16-22,25-44,29c-55,9-130-35-235-137c-51-50-93-89-93-87c0,16,209,372,322,548c90,141,96,163,40,163
		C1509.3,1881.4,1483.3,1874.4,1471.3,1866.4z M1978.3,1275.4c0-3-32-47-70-97c-69-90-198-214-253-243c-44-24-47,7-7,85
		c47,89,146,192,222,231C1925.3,1278.4,1978.3,1290.4,1978.3,1275.4z"/>
	<path d="M4650.3,1851.4c-24-11-41-24-37-29c3-6,12-8,20-4c24,9,18-32-14-95c-92-178-444-554-647-690c-94-63-151-87-170-72
		c-20,17-18,27,20,107c43,90,146,248,320,493c75,104,138,200,142,214c7,29-20,51-76,61c-28,5-42,1-70-19c-203-148-311-207-294-161
		c10,24-15,17-41-11c-29-31-33-79-9-112c29-42,106-23,201,49l53,39l-81-102c-201-258-319-466-319-565c0-174,192-169,446,13
		c270,194,576,535,680,759c28,59,30,92,8,123C4763.3,1877.4,4710.3,1878.4,4650.3,1851.4z"/>
	<path d="M1173.3,1835.4c-27-14-63-36-80-48c-49-37-318-73-459-62c-87,6-107,16-86,41c18,22,7,29-36,21c-56-11-86-47-82-99
		c3-38,7-44,43-62c54-27,251-28,374-2c46,10,84,17,86,15c3-4-275-424-349-526c-58-81-76-96-76-67c0,62-127-90-137-163
		c-4-32-1-44,16-61c25-25,70-27,110-6c49,25,132,127,221,270c90,145,311,480,364,551c28,39,37,44,106,59c115,26,170,59,170,102
		C1358.3,1863.4,1264.3,1882.4,1173.3,1835.4z"/>
	<path d="M4986.3,1376.4c-14-8-43-43-64-77c-64-106-296-358-329-358c-28,0-16,35,77,217c78,155,90,184,79,197c-19,23-54,20-78-6
		c-27-30-125-198-168-290c-36-75-57-160-48-187c24-68,100-81,176-30c26,17,74,61,108,97c34,37,59,58,56,47c-25-87-15-135,32-160
		c63-32,140-7,221,74c45,45,50,54,50,95c0,25-5,48-11,52s-34-17-64-49c-56-59-108-92-126-81c-30,18,25,168,126,344
		c32,56,55,107,51,115C5067.3,1395.4,5021.3,1395.4,4986.3,1376.4z"/>
</g>
</svg>
